<svg width="37" height="29" viewBox="0 0 37 29" fill="none" xmlns="http://www.w3.org/2000/svg">
<path d="M28 9.25V14.35C28 15.62 27.58 16.69 26.83 17.43C26.09 18.18 25.02 18.6 23.75 18.6V20.41C23.75 21.09 22.99 21.5 22.43 21.12L21.46 20.48C21.55 20.17 21.59 19.83 21.59 19.47V15.4C21.59 13.36 20.23 12 18.19 12H11.4C11.26 12 11.13 12.01 11 12.02V9.25C11 6.7 12.7 5 15.25 5H23.75C26.3 5 28 6.7 28 9.25Z" stroke="#292D32" stroke-width="1.5" stroke-miterlimit="10" stroke-linecap="round" stroke-linejoin="round"/>
<path d="M21.59 15.4V19.47C21.59 19.83 21.55 20.17 21.46 20.48C21.09 21.95 19.87 22.87 18.19 22.87H15.47L12.45 24.88C12 25.19 11.4 24.86 11.4 24.32V22.87C10.38 22.87 9.53 22.53 8.94 21.94C8.34 21.34 8 20.49 8 19.47V15.4C8 13.5 9.18 12.19 11 12.02C11.13 12.01 11.26 12 11.4 12H18.19C20.23 12 21.59 13.36 21.59 15.4Z" stroke="#292D32" stroke-width="1.5" stroke-miterlimit="10" stroke-linecap="round" stroke-linejoin="round"/>
<circle cx="25" cy="7" r="6" fill="#69A959"/>
</svg>
