<svg width="37" height="29" viewBox="0 0 37 29" fill="none" xmlns="http://www.w3.org/2000/svg">
<path d="M18.02 5.90997C14.71 5.90997 12.02 8.59997 12.02 11.91V14.8C12.02 15.41 11.76 16.34 11.45 16.86L10.3 18.77C9.59003 19.95 10.08 21.26 11.38 21.7C15.69 23.14 20.34 23.14 24.65 21.7C25.86 21.3 26.39 19.87 25.73 18.77L24.58 16.86C24.28 16.34 24.02 15.41 24.02 14.8V11.91C24.02 8.60997 21.32 5.90997 18.02 5.90997Z" stroke="#292D32" stroke-width="1.5" stroke-miterlimit="10" stroke-linecap="round"/>
<path d="M19.87 6.2C19.56 6.11 19.24 6.04 18.91 6C17.95 5.88 17.03 5.95 16.17 6.2C16.46 5.46 17.18 4.94 18.02 4.94C18.86 4.94 19.58 5.46 19.87 6.2Z" stroke="#292D32" stroke-width="1.5" stroke-miterlimit="10" stroke-linecap="round" stroke-linejoin="round"/>
<path d="M21.02 22.06C21.02 23.71 19.67 25.06 18.02 25.06C17.2 25.06 16.44 24.72 15.9 24.18C15.36 23.64 15.02 22.88 15.02 22.06" stroke="#292D32" stroke-width="1.5" stroke-miterlimit="10"/>
<circle cx="25" cy="7" r="6" fill="#69A959"/>
</svg>
