<svg width="35" height="35" viewBox="0 0 35 35" fill="none" xmlns="http://www.w3.org/2000/svg">
<rect width="35" height="35" rx="17.5" fill="#F1F1F1"/>
<path d="M16 13.5H19M12.26 27.5H22.74C25.5 27.5 26.6 25.81 26.73 23.75L27.25 15.49C27.2825 14.9778 27.2095 14.4645 27.0356 13.9816C26.8618 13.4988 26.5907 13.0567 26.2393 12.6827C25.8878 12.3088 25.4634 12.0109 24.9923 11.8075C24.5211 11.604 24.0132 11.4994 23.5 11.5C22.89 11.5 22.33 11.15 22.05 10.61L21.33 9.16C20.87 8.25 19.67 7.5 18.65 7.5H16.36C15.33 7.5 14.13 8.25 13.67 9.16L12.95 10.61C12.67 11.15 12.11 11.5 11.5 11.5C9.33005 11.5 7.61005 13.33 7.75005 15.49L8.27005 23.75C8.39005 25.81 9.50005 27.5 12.26 27.5Z" stroke="#2B2B2B" stroke-width="1.5" stroke-linecap="round" stroke-linejoin="round"/>
<path d="M17.5 23.5C19.29 23.5 20.75 22.04 20.75 20.25C20.75 18.46 19.29 17 17.5 17C15.71 17 14.25 18.46 14.25 20.25C14.25 22.04 15.71 23.5 17.5 23.5Z" stroke="#2B2B2B" stroke-width="1.5" stroke-linecap="round" stroke-linejoin="round"/>
</svg>
