<svg width="63" height="24" viewBox="0 0 63 24" fill="none" xmlns="http://www.w3.org/2000/svg">
<rect width="63" height="24" rx="12" fill="#BBC6F9"/>
<path d="M17.8184 11.709V12.3379C17.8184 13.0853 17.7249 13.7552 17.5381 14.3477C17.3512 14.9401 17.0824 15.4437 16.7314 15.8584C16.3805 16.2731 15.959 16.5898 15.4668 16.8086C14.9792 17.0273 14.4323 17.1367 13.8262 17.1367C13.2383 17.1367 12.6982 17.0273 12.2061 16.8086C11.7184 16.5898 11.2946 16.2731 10.9346 15.8584C10.5791 15.4437 10.3034 14.9401 10.1074 14.3477C9.91146 13.7552 9.81348 13.0853 9.81348 12.3379V11.709C9.81348 10.9616 9.90918 10.2939 10.1006 9.70605C10.2965 9.11361 10.5723 8.61003 10.9277 8.19531C11.2832 7.77604 11.7048 7.45703 12.1924 7.23828C12.6846 7.01953 13.2246 6.91016 13.8125 6.91016C14.4186 6.91016 14.9655 7.01953 15.4531 7.23828C15.9453 7.45703 16.3669 7.77604 16.7178 8.19531C17.0732 8.61003 17.3444 9.11361 17.5312 9.70605C17.7227 10.2939 17.8184 10.9616 17.8184 11.709ZM16.5127 12.3379V11.6953C16.5127 11.1029 16.4512 10.5788 16.3281 10.123C16.2096 9.66732 16.0342 9.28451 15.8018 8.97461C15.5693 8.66471 15.2845 8.43001 14.9473 8.27051C14.6146 8.111 14.2363 8.03125 13.8125 8.03125C13.4023 8.03125 13.0309 8.111 12.6982 8.27051C12.3701 8.43001 12.0876 8.66471 11.8506 8.97461C11.6182 9.28451 11.4382 9.66732 11.3105 10.123C11.1829 10.5788 11.1191 11.1029 11.1191 11.6953V12.3379C11.1191 12.9349 11.1829 13.4635 11.3105 13.9238C11.4382 14.3796 11.6204 14.7646 11.8574 15.0791C12.099 15.389 12.3838 15.6237 12.7119 15.7832C13.0446 15.9427 13.416 16.0225 13.8262 16.0225C14.2546 16.0225 14.6351 15.9427 14.9678 15.7832C15.3005 15.6237 15.5807 15.389 15.8086 15.0791C16.041 14.7646 16.2165 14.3796 16.335 13.9238C16.4535 13.4635 16.5127 12.9349 16.5127 12.3379ZM20.8672 11.1826V17H19.6025V9.60352H20.7988L20.8672 11.1826ZM20.5664 13.0215L20.04 13.001C20.0446 12.4951 20.1198 12.028 20.2656 11.5996C20.4115 11.1667 20.6165 10.7907 20.8809 10.4717C21.1452 10.1527 21.4596 9.90658 21.8242 9.7334C22.1934 9.55566 22.6012 9.4668 23.0479 9.4668C23.4124 9.4668 23.7406 9.51693 24.0322 9.61719C24.3239 9.71289 24.5723 9.86784 24.7773 10.082C24.987 10.2962 25.1465 10.5742 25.2559 10.916C25.3652 11.2533 25.4199 11.6657 25.4199 12.1533V17H24.1484V12.1396C24.1484 11.7523 24.0915 11.4424 23.9775 11.21C23.8636 10.973 23.6973 10.8021 23.4785 10.6973C23.2598 10.5879 22.9909 10.5332 22.6719 10.5332C22.3574 10.5332 22.0703 10.5993 21.8105 10.7314C21.5553 10.8636 21.3343 11.0459 21.1475 11.2783C20.9652 11.5107 20.8216 11.7773 20.7168 12.0781C20.6165 12.3743 20.5664 12.6888 20.5664 13.0215ZM36.3096 14.4844C36.3096 14.252 36.2731 14.0469 36.2002 13.8691C36.1318 13.6868 36.0088 13.5228 35.8311 13.377C35.6579 13.2311 35.4163 13.0921 35.1064 12.96C34.8011 12.8278 34.4137 12.6934 33.9443 12.5566C33.4521 12.4108 33.0078 12.249 32.6113 12.0713C32.2148 11.889 31.8753 11.6816 31.5928 11.4492C31.3102 11.2168 31.0938 10.9502 30.9434 10.6494C30.793 10.3486 30.7178 10.0046 30.7178 9.61719C30.7178 9.22982 30.7975 8.87207 30.957 8.54395C31.1165 8.21582 31.3444 7.93099 31.6406 7.68945C31.9414 7.44336 32.2992 7.25195 32.7139 7.11523C33.1286 6.97852 33.5911 6.91016 34.1016 6.91016C34.849 6.91016 35.4824 7.05371 36.002 7.34082C36.526 7.62337 36.9248 7.99479 37.1982 8.45508C37.4717 8.91081 37.6084 9.39844 37.6084 9.91797H36.2959C36.2959 9.54427 36.2161 9.21387 36.0566 8.92676C35.8971 8.63509 35.6556 8.40723 35.332 8.24316C35.0085 8.07454 34.5983 7.99023 34.1016 7.99023C33.6322 7.99023 33.2448 8.06087 32.9395 8.20215C32.6341 8.34342 32.4062 8.53483 32.2559 8.77637C32.11 9.0179 32.0371 9.29362 32.0371 9.60352C32.0371 9.81315 32.0804 10.0046 32.167 10.1777C32.2581 10.3464 32.3971 10.5036 32.584 10.6494C32.7754 10.7952 33.0169 10.9297 33.3086 11.0527C33.6048 11.1758 33.958 11.2943 34.3682 11.4082C34.9333 11.5677 35.4209 11.7454 35.8311 11.9414C36.2412 12.1374 36.5785 12.3584 36.8428 12.6045C37.1117 12.846 37.3099 13.1217 37.4375 13.4316C37.5697 13.737 37.6357 14.0833 37.6357 14.4707C37.6357 14.8763 37.5537 15.2432 37.3896 15.5713C37.2256 15.8994 36.9909 16.1797 36.6855 16.4121C36.3802 16.6445 36.0133 16.8245 35.585 16.9521C35.1611 17.0752 34.6872 17.1367 34.1631 17.1367C33.7028 17.1367 33.2493 17.0729 32.8027 16.9453C32.3607 16.8177 31.9574 16.6263 31.5928 16.3711C31.2327 16.1159 30.9434 15.8014 30.7246 15.4277C30.5104 15.0495 30.4033 14.612 30.4033 14.1152H31.7158C31.7158 14.457 31.7819 14.751 31.9141 14.9971C32.0462 15.2386 32.2262 15.4391 32.4541 15.5986C32.6865 15.7581 32.9486 15.8766 33.2402 15.9541C33.5365 16.027 33.8441 16.0635 34.1631 16.0635C34.6234 16.0635 35.013 15.9997 35.332 15.8721C35.651 15.7445 35.8926 15.5622 36.0566 15.3252C36.2253 15.0882 36.3096 14.8079 36.3096 14.4844ZM40.5 9.60352V17H39.2285V9.60352H40.5ZM39.1328 7.6416C39.1328 7.43652 39.1943 7.26335 39.3174 7.12207C39.445 6.98079 39.6318 6.91016 39.8779 6.91016C40.1195 6.91016 40.304 6.98079 40.4316 7.12207C40.5638 7.26335 40.6299 7.43652 40.6299 7.6416C40.6299 7.83757 40.5638 8.00618 40.4316 8.14746C40.304 8.28418 40.1195 8.35254 39.8779 8.35254C39.6318 8.35254 39.445 8.28418 39.3174 8.14746C39.1943 8.00618 39.1328 7.83757 39.1328 7.6416ZM45.627 9.60352V10.5742H41.6279V9.60352H45.627ZM42.9814 7.80566H44.2461V15.168C44.2461 15.4186 44.2848 15.6077 44.3623 15.7354C44.4398 15.863 44.54 15.9473 44.6631 15.9883C44.7861 16.0293 44.9183 16.0498 45.0596 16.0498C45.1644 16.0498 45.2738 16.0407 45.3877 16.0225C45.5062 15.9997 45.5951 15.9814 45.6543 15.9678L45.6611 17C45.5609 17.0319 45.4287 17.0615 45.2646 17.0889C45.1051 17.1208 44.9115 17.1367 44.6836 17.1367C44.3737 17.1367 44.0889 17.0752 43.8291 16.9521C43.5693 16.8291 43.362 16.624 43.207 16.3369C43.0566 16.0452 42.9814 15.6533 42.9814 15.1611V7.80566ZM50.1797 17.1367C49.6647 17.1367 49.1976 17.0501 48.7783 16.877C48.3636 16.6992 48.0059 16.4508 47.7051 16.1318C47.4089 15.8128 47.181 15.4346 47.0215 14.9971C46.862 14.5596 46.7822 14.0811 46.7822 13.5615V13.2744C46.7822 12.6729 46.8711 12.1374 47.0488 11.668C47.2266 11.194 47.4681 10.793 47.7734 10.4648C48.0788 10.1367 48.4251 9.88835 48.8125 9.71973C49.1999 9.55111 49.6009 9.4668 50.0156 9.4668C50.5443 9.4668 51 9.55794 51.3828 9.74023C51.7702 9.92253 52.0869 10.1777 52.333 10.5059C52.5791 10.8294 52.7614 11.2122 52.8799 11.6543C52.9984 12.0918 53.0576 12.5703 53.0576 13.0898V13.6572H47.5342V12.625H51.793V12.5293C51.7747 12.2012 51.7064 11.8822 51.5879 11.5723C51.474 11.2624 51.2917 11.0072 51.041 10.8066C50.7904 10.6061 50.4486 10.5059 50.0156 10.5059C49.7285 10.5059 49.4642 10.5674 49.2227 10.6904C48.9811 10.8089 48.7738 10.9867 48.6006 11.2236C48.4274 11.4606 48.293 11.75 48.1973 12.0918C48.1016 12.4336 48.0537 12.8278 48.0537 13.2744V13.5615C48.0537 13.9124 48.1016 14.2428 48.1973 14.5527C48.2975 14.8581 48.4411 15.127 48.6279 15.3594C48.8193 15.5918 49.0495 15.7741 49.3184 15.9062C49.5918 16.0384 49.9017 16.1045 50.248 16.1045C50.6947 16.1045 51.0729 16.0133 51.3828 15.8311C51.6927 15.6488 51.9639 15.4049 52.1963 15.0996L52.9619 15.708C52.8024 15.9495 52.5996 16.1797 52.3535 16.3984C52.1074 16.6172 51.8044 16.7949 51.4443 16.9316C51.0889 17.0684 50.6673 17.1367 50.1797 17.1367Z" fill="#181818"/>
</svg>
