<svg width="78" height="24" viewBox="0 0 78 24" fill="none" xmlns="http://www.w3.org/2000/svg">
<rect width="78" height="24" rx="12" fill="#69A959" fill-opacity="0.25"/>
<path d="M13.3262 13.0967H10.667V12.0234H13.3262C13.8411 12.0234 14.2581 11.9414 14.5771 11.7773C14.8962 11.6133 15.1286 11.3854 15.2744 11.0938C15.4248 10.8021 15.5 10.4694 15.5 10.0957C15.5 9.75391 15.4248 9.43262 15.2744 9.13184C15.1286 8.83105 14.8962 8.58952 14.5771 8.40723C14.2581 8.22038 13.8411 8.12695 13.3262 8.12695H10.9746V17H9.65527V7.04688H13.3262C14.0781 7.04688 14.7139 7.17676 15.2334 7.43652C15.7529 7.69629 16.1471 8.05632 16.416 8.5166C16.6849 8.97233 16.8193 9.49414 16.8193 10.082C16.8193 10.7201 16.6849 11.2646 16.416 11.7158C16.1471 12.167 15.7529 12.5111 15.2334 12.748C14.7139 12.9805 14.0781 13.0967 13.3262 13.0967ZM22.5752 15.7354V11.9277C22.5752 11.6361 22.516 11.3831 22.3975 11.1689C22.2835 10.9502 22.1104 10.7816 21.8779 10.6631C21.6455 10.5446 21.3584 10.4854 21.0166 10.4854C20.6976 10.4854 20.4173 10.54 20.1758 10.6494C19.9388 10.7588 19.752 10.9023 19.6152 11.0801C19.4831 11.2578 19.417 11.4492 19.417 11.6543H18.1523C18.1523 11.39 18.2207 11.1279 18.3574 10.8682C18.4941 10.6084 18.6901 10.3737 18.9453 10.1641C19.2051 9.94987 19.515 9.78125 19.875 9.6582C20.2396 9.5306 20.6452 9.4668 21.0918 9.4668C21.6296 9.4668 22.1035 9.55794 22.5137 9.74023C22.9284 9.92253 23.252 10.1982 23.4844 10.5674C23.7214 10.932 23.8398 11.39 23.8398 11.9414V15.3867C23.8398 15.6328 23.8604 15.8949 23.9014 16.1729C23.9469 16.4508 24.013 16.6901 24.0996 16.8906V17H22.7803C22.7165 16.8542 22.6663 16.6605 22.6299 16.4189C22.5934 16.1729 22.5752 15.945 22.5752 15.7354ZM22.7939 12.5156L22.8076 13.4043H21.5293C21.1693 13.4043 20.848 13.4339 20.5654 13.4932C20.2829 13.5479 20.0459 13.6322 19.8545 13.7461C19.6631 13.86 19.5173 14.0036 19.417 14.1768C19.3167 14.3454 19.2666 14.5436 19.2666 14.7715C19.2666 15.0039 19.319 15.2158 19.4238 15.4072C19.5286 15.5986 19.6859 15.7513 19.8955 15.8652C20.1097 15.9746 20.3717 16.0293 20.6816 16.0293C21.069 16.0293 21.4108 15.9473 21.707 15.7832C22.0033 15.6191 22.238 15.4186 22.4111 15.1816C22.5889 14.9447 22.6846 14.7145 22.6982 14.4912L23.2383 15.0996C23.2064 15.291 23.1198 15.5029 22.9785 15.7354C22.8372 15.9678 22.6481 16.1911 22.4111 16.4053C22.1787 16.6149 21.9007 16.7904 21.5771 16.9316C21.2581 17.0684 20.8981 17.1367 20.4971 17.1367C19.9958 17.1367 19.556 17.0387 19.1777 16.8428C18.804 16.6468 18.5124 16.3848 18.3027 16.0566C18.0977 15.724 17.9951 15.3525 17.9951 14.9424C17.9951 14.5459 18.0726 14.1973 18.2275 13.8965C18.3825 13.5911 18.6058 13.3382 18.8975 13.1377C19.1891 12.9326 19.54 12.7777 19.9502 12.6729C20.3604 12.568 20.8184 12.5156 21.3242 12.5156H22.7939ZM27.0938 10.7656V17H25.8291V9.60352H27.0596L27.0938 10.7656ZM29.4043 9.5625L29.3975 10.7383C29.2926 10.7155 29.1924 10.7018 29.0967 10.6973C29.0055 10.6882 28.9007 10.6836 28.7822 10.6836C28.4906 10.6836 28.2331 10.7292 28.0098 10.8203C27.7865 10.9115 27.5973 11.0391 27.4424 11.2031C27.2874 11.3672 27.1644 11.5632 27.0732 11.791C26.9867 12.0143 26.9297 12.2604 26.9023 12.5293L26.5469 12.7344C26.5469 12.2878 26.5902 11.8685 26.6768 11.4766C26.7679 11.0846 26.9069 10.7383 27.0938 10.4375C27.2806 10.1322 27.5176 9.89518 27.8047 9.72656C28.0964 9.55339 28.4427 9.4668 28.8438 9.4668C28.9349 9.4668 29.0397 9.47819 29.1582 9.50098C29.2767 9.51921 29.3587 9.53971 29.4043 9.5625ZM34.0117 9.60352V10.5742H30.0127V9.60352H34.0117ZM31.3662 7.80566H32.6309V15.168C32.6309 15.4186 32.6696 15.6077 32.7471 15.7354C32.8245 15.863 32.9248 15.9473 33.0479 15.9883C33.1709 16.0293 33.3031 16.0498 33.4443 16.0498C33.5492 16.0498 33.6585 16.0407 33.7725 16.0225C33.891 15.9997 33.9798 15.9814 34.0391 15.9678L34.0459 17C33.9456 17.0319 33.8135 17.0615 33.6494 17.0889C33.4899 17.1208 33.2962 17.1367 33.0684 17.1367C32.7585 17.1367 32.4736 17.0752 32.2139 16.9521C31.9541 16.8291 31.7467 16.624 31.5918 16.3369C31.4414 16.0452 31.3662 15.6533 31.3662 15.1611V7.80566ZM42.5635 7.04688V17H41.2646V7.04688H42.5635ZM45.7627 7.04688V8.12695H38.0723V7.04688H45.7627ZM48.4219 9.60352V17H47.1504V9.60352H48.4219ZM47.0547 7.6416C47.0547 7.43652 47.1162 7.26335 47.2393 7.12207C47.3669 6.98079 47.5537 6.91016 47.7998 6.91016C48.0413 6.91016 48.2259 6.98079 48.3535 7.12207C48.4857 7.26335 48.5518 7.43652 48.5518 7.6416C48.5518 7.83757 48.4857 8.00618 48.3535 8.14746C48.2259 8.28418 48.0413 8.35254 47.7998 8.35254C47.5537 8.35254 47.3669 8.28418 47.2393 8.14746C47.1162 8.00618 47.0547 7.83757 47.0547 7.6416ZM51.71 11.0732V17H50.4385V9.60352H51.6416L51.71 11.0732ZM51.4502 13.0215L50.8623 13.001C50.8669 12.4951 50.9329 12.028 51.0605 11.5996C51.1882 11.1667 51.3773 10.7907 51.6279 10.4717C51.8786 10.1527 52.1908 9.90658 52.5645 9.7334C52.9382 9.55566 53.3711 9.4668 53.8633 9.4668C54.2096 9.4668 54.5286 9.51693 54.8203 9.61719C55.112 9.71289 55.3649 9.86556 55.5791 10.0752C55.7933 10.2848 55.9596 10.5537 56.0781 10.8818C56.1966 11.21 56.2559 11.6064 56.2559 12.0713V17H54.9912V12.1328C54.9912 11.7454 54.9251 11.4355 54.793 11.2031C54.6654 10.9707 54.4831 10.8021 54.2461 10.6973C54.0091 10.5879 53.7311 10.5332 53.4121 10.5332C53.0384 10.5332 52.7262 10.5993 52.4756 10.7314C52.2249 10.8636 52.0244 11.0459 51.874 11.2783C51.7236 11.5107 51.6143 11.7773 51.5459 12.0781C51.4821 12.3743 51.4502 12.6888 51.4502 13.0215ZM56.2422 12.3242L55.3945 12.584C55.3991 12.1784 55.4652 11.7887 55.5928 11.415C55.7249 11.0413 55.9141 10.7087 56.1602 10.417C56.4108 10.1253 56.7184 9.89518 57.083 9.72656C57.4476 9.55339 57.8646 9.4668 58.334 9.4668C58.7305 9.4668 59.0814 9.51921 59.3867 9.62402C59.6966 9.72884 59.9564 9.89062 60.166 10.1094C60.3802 10.3236 60.542 10.5993 60.6514 10.9365C60.7607 11.2738 60.8154 11.6748 60.8154 12.1396V17H59.5439V12.126C59.5439 11.7113 59.4779 11.39 59.3457 11.1621C59.2181 10.9297 59.0358 10.7679 58.7988 10.6768C58.5664 10.5811 58.2884 10.5332 57.9648 10.5332C57.6868 10.5332 57.4408 10.5811 57.2266 10.6768C57.0124 10.7725 56.8324 10.9046 56.6865 11.0732C56.5407 11.2373 56.429 11.4264 56.3516 11.6406C56.2786 11.8548 56.2422 12.0827 56.2422 12.3242ZM65.7988 17.1367C65.2839 17.1367 64.8167 17.0501 64.3975 16.877C63.9827 16.6992 63.625 16.4508 63.3242 16.1318C63.028 15.8128 62.8001 15.4346 62.6406 14.9971C62.4811 14.5596 62.4014 14.0811 62.4014 13.5615V13.2744C62.4014 12.6729 62.4902 12.1374 62.668 11.668C62.8457 11.194 63.0872 10.793 63.3926 10.4648C63.6979 10.1367 64.0443 9.88835 64.4316 9.71973C64.819 9.55111 65.2201 9.4668 65.6348 9.4668C66.1634 9.4668 66.6191 9.55794 67.002 9.74023C67.3893 9.92253 67.7061 10.1777 67.9521 10.5059C68.1982 10.8294 68.3805 11.2122 68.499 11.6543C68.6175 12.0918 68.6768 12.5703 68.6768 13.0898V13.6572H63.1533V12.625H67.4121V12.5293C67.3939 12.2012 67.3255 11.8822 67.207 11.5723C67.0931 11.2624 66.9108 11.0072 66.6602 10.8066C66.4095 10.6061 66.0677 10.5059 65.6348 10.5059C65.3477 10.5059 65.0833 10.5674 64.8418 10.6904C64.6003 10.8089 64.3929 10.9867 64.2197 11.2236C64.0465 11.4606 63.9121 11.75 63.8164 12.0918C63.7207 12.4336 63.6729 12.8278 63.6729 13.2744V13.5615C63.6729 13.9124 63.7207 14.2428 63.8164 14.5527C63.9167 14.8581 64.0602 15.127 64.2471 15.3594C64.4385 15.5918 64.6686 15.7741 64.9375 15.9062C65.2109 16.0384 65.5208 16.1045 65.8672 16.1045C66.3138 16.1045 66.6921 16.0133 67.002 15.8311C67.3118 15.6488 67.583 15.4049 67.8154 15.0996L68.5811 15.708C68.4215 15.9495 68.2188 16.1797 67.9727 16.3984C67.7266 16.6172 67.4235 16.7949 67.0635 16.9316C66.708 17.0684 66.2865 17.1367 65.7988 17.1367Z" fill="#181818"/>
</svg>
