<svg width="21" height="22" viewBox="0 0 21 22" fill="none" xmlns="http://www.w3.org/2000/svg">
<path d="M10.5 11C11.6603 11 12.7731 10.5391 13.5936 9.71859C14.4141 8.89812 14.875 7.78532 14.875 6.625C14.875 5.46468 14.4141 4.35188 13.5936 3.53141C12.7731 2.71094 11.6603 2.25 10.5 2.25C9.33968 2.25 8.22688 2.71094 7.40641 3.53141C6.58594 4.35188 6.125 5.46468 6.125 6.625C6.125 7.78532 6.58594 8.89812 7.40641 9.71859C8.22688 10.5391 9.33968 11 10.5 11Z" stroke="#2B2B2B" stroke-width="1.5" stroke-linecap="round" stroke-linejoin="round"/>
<path d="M16.8088 14.2729L13.7113 17.3704C13.5888 17.4929 13.475 17.7204 13.4488 17.8866L13.2825 19.0679C13.2213 19.4966 13.5188 19.7941 13.9475 19.7329L15.1288 19.5666C15.295 19.5404 15.5313 19.4266 15.645 19.3041L18.7425 16.2066C19.2763 15.6729 19.53 15.0516 18.7425 14.2641C17.9638 13.4854 17.3425 13.7391 16.8088 14.2729Z" stroke="#2B2B2B" stroke-width="1.5" stroke-miterlimit="10" stroke-linecap="round" stroke-linejoin="round"/>
<path d="M16.3625 14.7188C16.625 15.6638 17.36 16.3987 18.305 16.6612" stroke="#2B2B2B" stroke-width="1.5" stroke-miterlimit="10" stroke-linecap="round" stroke-linejoin="round"/>
<path d="M2.98376 19.75C2.98376 16.3638 6.35251 13.625 10.5 13.625C11.41 13.625 12.285 13.7563 13.0988 14.0013" stroke="#2B2B2B" stroke-width="1.5" stroke-linecap="round" stroke-linejoin="round"/>
</svg>
